/vscmnt/brussel_pixiu_data/_data_brussel/112/vsc11236/PredSimResults/SUBJ10opt3D/weighted-trackIG/worker_05.mot
version=1
nRows=10
nColumns=50
inDegrees=yes
endheader
                time	         pelvis_tilt	         pelvis_list	     pelvis_rotation	           pelvis_tx	           pelvis_ty	           pelvis_tz	       hip_flexion_r	     hip_adduction_r	      hip_rotation_r	        knee_angle_r	       ankle_angle_r	         mtp_angle_r	       hip_flexion_l	     hip_adduction_l	      hip_rotation_l	        knee_angle_l	       ankle_angle_l	         mtp_angle_l	    lumbar_extension	      lumbar_bending	     lumbar_rotation	 ercspn_r/activation	 intobl_r/activation	 extobl_r/activation	    abd_r/activation	    add_r/activation	hamstrings_r/activation	bifemsh_r/activation	glut_max_r/activation	iliopsoas_r/activation	rect_fem_r/activation	  vasti_r/activation	gastroc_r/activation	 soleus_r/activation	tib_ant_r/activation	 ercspn_l/activation	 intobl_l/activation	 extobl_l/activation	    abd_l/activation	    add_l/activation	hamstrings_l/activation	bifemsh_l/activation	glut_max_l/activation	iliopsoas_l/activation	rect_fem_l/activation	  vasti_l/activation	gastroc_l/activation	 soleus_l/activation	tib_ant_l/activation	
          1.20152778	         -5.07322512	         -1.04590189	          6.50881524	          1.29765000	          0.82291328	         -0.01414807	         30.63236404	         -1.49033272	         -5.95356681	         -4.44897377	          3.14030871	          0.25826269	        -13.89644663	         -0.37786904	          0.28226912	         -5.81759366	          9.32837274	         26.32273080	         -6.15968465	         -0.81286221	         -7.03445951	          0.12550428	          0.16049581	          0.00999999	          0.00999999	          0.14010698	          0.14541729	          0.19493598	          0.02859137	          0.12877366	          0.00999999	          0.00999999	          0.01357379	          0.00999999	          0.27934601	          0.04937553	          0.00999999	          0.00999999	          0.07452411	          0.00999999	          0.01253624	          0.27235224	          0.02989785	          0.56069517	          0.00999999	          0.00999999	          0.36103417	          0.28407184	          0.02529496	
          1.21354305	         -5.12089068	         -1.01894002	          6.69335437	          1.31325378	          0.82116063	         -0.01367417	         30.87405763	         -1.36175523	         -5.82153294	         -6.48069120	          2.79660624	          0.25912787	        -14.06303899	         -0.51619758	         -0.01441631	         -7.39327575	          8.83050269	         28.02305286	         -5.91427594	         -0.29372547	         -7.43054345	          0.10915988	          0.13371813	          0.00999999	          0.00999999	          0.25511520	          0.12254514	          0.16241219	          0.06765091	          0.10728862	          0.00999999	          0.00999999	          0.01649005	          0.01231734	          0.30213185	          0.10062901	          0.00999999	          0.00999999	          0.06209025	          0.04433739	          0.01764663	          0.22691205	          0.02490959	          0.52883510	          0.00999999	          0.00999999	          0.33249388	          0.27743872	          0.02107466	
          1.22555833	         -5.15542443	         -1.01984542	          6.85252725	          1.32930915	          0.81962490	         -0.01313716	         30.90147117	         -1.24846356	         -5.55430766	         -8.42481563	          2.40972622	          0.24427738	        -14.09005197	         -0.69816080	         -0.32950256	         -9.27728533	          8.18255232	         29.76191455	         -5.62973383	          0.26252067	         -7.79931823	          0.09094727	          0.11140814	          0.00999999	          0.00999999	          0.21255090	          0.10231213	          0.13531478	          0.12047539	          0.08938822	          0.00999999	          0.00999999	          0.01373879	          0.01026227	          0.37286097	          0.11793128	          0.00999999	          0.00999999	          0.05173090	          0.07753314	          0.01470242	          0.18905326	          0.02075359	          0.44588375	          0.00999999	          0.00999999	          0.29466947	          0.26503634	          0.01755849	
          1.23757361	         -5.17898844	         -1.03737415	          6.97683221	          1.34562483	          0.81842059	         -0.01246149	         30.72968954	         -1.12115195	         -5.33565307	        -10.04309619	          1.92093751	          0.23422951	        -13.93175303	         -0.91420531	         -0.67357937	        -11.51120406	          7.33552627	         31.49698880	         -5.32815519	          0.82733489	         -8.13419048	          0.10306400	          0.09282042	          0.00999999	          0.04658870	          0.18916516	          0.08929104	          0.11273839	          0.13876234	          0.07447438	          0.00999999	          0.00999999	          0.01144656	          0.00999999	          0.43272904	          0.13058296	          0.00999999	          0.00999999	          0.04309993	          0.06479872	          0.01613188	          0.15751096	          0.01729099	          0.37149097	          0.00999999	          0.00999999	          0.24550580	          0.24728567	          0.01462897	
          1.24958889	         -5.19311908	         -1.05617073	          7.06650291	          1.36197214	          0.81764181	         -0.01165336	         30.46791436	         -0.98608105	         -5.22877028	        -11.52563942	          1.45972283	          0.22075857	        -13.54945803	         -1.14849292	         -1.04882038	        -14.12202322	          6.26854962	         33.11836035	         -5.03393957	          1.38349143	         -8.42968445	          0.10936321	          0.07733394	          0.00999999	          0.09144647	          0.21888163	          0.07464041	          0.09392873	          0.14729754	          0.06204881	          0.00999999	          0.00999999	          0.00999999	          0.00999999	          0.46000164	          0.16047095	          0.00999999	          0.00999999	          0.03590899	          0.06707727	          0.01961900	          0.13123129	          0.01440610	          0.30951013	          0.00999999	          0.00999999	          0.20454476	          0.22507043	          0.01218822	
          1.26160417	         -5.19852915	         -1.07574428	          7.12335406	          1.37817177	          0.81736474	         -0.01073621	         30.18775326	         -0.84835232	         -5.21207341	        -12.99841517	          1.16466743	          0.20729573	        -12.91611282	         -1.40118834	         -1.45823337	        -17.12156607	          4.99813791	         34.42987536	         -4.76113690	          1.93078426	         -8.68246668	          0.10619944	          0.06443128	          0.00999999	          0.12462524	          0.23653202	          0.06834922	          0.07825734	          0.14283109	          0.05169638	          0.00999999	          0.05202406	          0.00999999	          0.00999999	          0.47565954	          0.18550674	          0.00999999	          0.00999999	          0.02991781	          0.13671789	          0.03007404	          0.10933621	          0.01200253	          0.25787039	          0.00999999	          0.00999999	          0.17041781	          0.19116748	          0.01015470	
          1.27361944	         -5.19776119	         -1.09337785	          7.14715489	          1.39407785	          0.81768656	         -0.00974080	         29.87898488	         -0.70778271	         -5.25332448	        -14.42116246	          1.09223035	          0.19223313	        -12.00817617	         -1.66994052	         -1.91585975	        -20.51406955	          3.57050353	         35.14048399	         -4.51995247	          2.46655926	         -8.89036807	          0.10019041	          0.05368134	          0.00999999	          0.14662895	          0.25005607	          0.06725944	          0.06520061	          0.12046426	          0.04307117	          0.00999999	          0.09846897	          0.00999999	          0.00999999	          0.46512305	          0.19698282	          0.00999999	          0.00999999	          0.02492622	          0.20219205	          0.04263336	          0.09109418	          0.00999999	          0.21484640	          0.00999999	          0.00999999	          0.14198471	          0.15927243	          0.00999999	
          1.28563472	         -5.19345209	         -1.10280324	          7.13803917	          1.40961026	          0.81864742	         -0.00869976	         29.49487873	         -0.56162113	         -5.30650455	        -15.71092720	          1.32678780	          0.18756276	        -10.81890178	         -1.95376419	         -2.42715879	        -24.28457458	          2.02431229	         35.00327220	         -4.31539762	          2.98519189	         -9.05211169	          0.09334370	          0.04472496	          0.00999999	          0.16012138	          0.24986948	          0.06824754	          0.05432232	          0.10036559	          0.03588503	          0.00999999	          0.14354995	          0.00999999	          0.00999999	          0.41332649	          0.20440918	          0.00999999	          0.00999999	          0.02076744	          0.26518320	          0.04689659	          0.07589571	          0.00999999	          0.17900069	          0.00999999	          0.00999999	          0.11829549	          0.13269887	          0.00999999	
          1.29765000	         -5.18815086	         -1.09347109	          7.09423049	          1.42473331	          0.82024842	         -0.00764871	         28.97287653	         -0.41100091	         -5.33442649	        -16.75084133	          1.88277016	          0.22959640	         -9.37133310	         -2.24543391	         -2.97491410	        -28.32749464	          0.22358456	         34.08223856	         -4.14934775	          3.47731618	         -9.16544315	          0.07922407	          0.03726289	          0.00999999	          0.16119538	          0.22942166	          0.06985444	          0.04525899	          0.08362025	          0.02989785	          0.00999999	          0.17901432	          0.00999999	          0.00999999	          0.34603642	          0.20561623	          0.00999999	          0.00999999	          0.01730253	          0.32235552	          0.05976370	          0.06323301	          0.00999999	          0.14913559	          0.00999999	          0.00999999	          0.09855866	          0.11055893	          0.00999999	
          1.30966528	         -5.18419840	         -1.05058794	          7.01197954	          1.43941561	          0.82245093	         -0.00661548	         28.26813878	         -0.26503466	         -5.31598678	        -17.43025429	          2.59755603	          0.33794596	         -7.70695128	         -2.52791843	         -3.52668082	        -32.49464320	         -1.94701834	         32.47099622	         -4.02667223	          3.92852842	         -9.22819847	          0.06600606	          0.03104582	          0.00999999	          0.15371229	          0.19114416	          0.07341227	          0.03770783	          0.06966876	          0.02490959	          0.00999999	          0.18719806	          0.00999999	          0.00999999	          0.28920356	          0.19839455	          0.00999999	          0.00999999	          0.01441572	          0.33880535	          0.05814326	          0.05490984	          0.00999999	          0.12425330	          0.00999999	          0.00999999	          0.08211480	          0.09211290	          0.00999999	
